<svg id="Camada_1" data-name="Camada 1" xmlns="http://www.w3.org/2000/svg" viewBox="0 0 785.94 460.67"><defs><style>.cls-1,.cls-2{fill:#fff;}.cls-2{fill-rule:evenodd;}</style></defs><path class="cls-1" d="M0,371.25q1.76-11.07,3-19C3.85,347,4.42,343.21,4.7,341l9.18-67.77q1.39.27,2.91.42c1,.09,2.09.14,3.26.14s2.27-.05,3.33-.14,2.06-.24,3-.42q7.71,17.18,16,33.89t17.14,33.18q8.48-15.9,16.68-32.66t16-34.41c1,.18,2.08.32,3.15.42s2.22.14,3.43.14,2.38-.05,3.47-.14,2.14-.24,3.12-.42l8.2,68.61q1.33,11.35,2.39,17.84t2.17,11.53q-3.51-.29-6.48-.46c-2-.11-3.9-.17-5.72-.17s-3.73.06-5.71.17-4,.3-6.13.53l-.14-1.47q-.63-15.07-1-18.64l-4.63-45.77q-8.05,15.42-16.12,31.75T55.79,371.25A7.82,7.82,0,0,0,54.7,371a17.59,17.59,0,0,0-1.93-.07A15,15,0,0,0,51,371a8.13,8.13,0,0,0-1.05.21q-8.34-17.52-16.33-33.4t-15.7-30.17l-3.43,29.79-.14,1.12q-2.59,23.21-2.66,32.66c-1.08-.23-2.11-.41-3.09-.53a24.65,24.65,0,0,0-2.73-.17,23.78,23.78,0,0,0-2.8.17C2.15,370.84,1.12,371,0,371.25Z"/><path class="cls-1" d="M131.76,323.73q0-24.53,14.79-38.44t41-13.91q25.23,0,39,13.24t13.74,37.71q0,23.13-14.79,37T186,373.14q-26.14,0-40.2-12.82T131.76,323.73Zm23.06-1.4q0,20,8.27,31.33T186,364.94q14.43,0,22.71-11.35T217,322.33q0-20.19-8.27-31.58T186,279.37q-14.58,0-22.88,11.42T154.82,322.33Z"/><path class="cls-1" d="M257.57,371.25q.69-10.31,1.12-22.22t.42-25.86q0-13.17-.42-25.72t-1.19-24.18c1.16.14,2.38.25,3.64.35s2.64.14,4.14.14,2.8-.05,4.06-.14,2.48-.24,3.65-.42q14.64,16.4,29.61,32.87t30.24,33V322.19q0-4.69-.14-18.22t-.42-30.7c.88.14,1.82.25,2.8.35s2,.14,3.09.14,2.32-.05,3.32-.14,1.95-.21,2.84-.35q-.63,6.09-.87,18.82t-.25,41V341q0,11.5.25,18.23t.87,12.05c-1.12-.23-2.18-.41-3.19-.53a27.16,27.16,0,0,0-3-.17,28.67,28.67,0,0,0-3,.17c-1.05.12-2.17.3-3.33.53Q318.47,356,303.19,339.19T269.27,302.5v41.9c0,1.74.05,5.05.14,10s.23,10.53.42,16.89c-1.22-.23-2.31-.41-3.29-.53a25.84,25.84,0,0,0-2.88-.17,26.1,26.1,0,0,0-2.83.17C259.82,370.84,258.73,371,257.57,371.25Z"/><path class="cls-1" d="M386.59,371.25q.84-10.78,1.26-22.78t.42-26.14q0-4.83-.14-15.1t-.42-23.1h-3q-6.6,0-12.62.42t-11.49,1.26c0-.51.13-1.53.24-3.05s.18-2.74.18-3.67-.1-2.32-.28-4.14c-.05-.75-.1-1.33-.14-1.75q11.63.56,20.78.8t17.27.25q8.21,0,17.42-.25t20.71-.8c-.09.89-.18,1.85-.28,2.87s-.14,2-.14,3,0,2.09.11,3.19.17,2.27.31,3.53q-5.61-.84-11.63-1.26t-12.62-.42h-2.8q-.35,5.46-.49,11.85t-.14,19q0,22.29.38,34.55t1.16,21.73q-3.44-.35-6.48-.53c-2-.11-4-.17-5.79-.17s-3.7.06-5.64.17S388.74,371,386.59,371.25Z"/><path class="cls-1" d="M448.19,366.34c.85-2.94,1.66-6.06,2.46-9.35s1.54-6.77,2.24-10.41h1.89q1.89,8.34,7.39,12.93a20.47,20.47,0,0,0,13.57,4.59q7.29,0,11.67-4a13.52,13.52,0,0,0,4.38-10.55,12.62,12.62,0,0,0-2.8-8.2q-2.82-3.43-13.67-9.32-16.68-8.9-21.69-15.38t-5-16.09q0-13,9.26-21.13t24.46-8.09a44.08,44.08,0,0,1,12.3,1.64,37.64,37.64,0,0,1,10.68,5.08q-1.46,4.22-2.66,8.17c-.79,2.64-1.5,5.17-2.1,7.6H499a19.77,19.77,0,0,0-19.28-13.73q-6.3,0-10.16,3.47a11.7,11.7,0,0,0-3.85,9.14,12.06,12.06,0,0,0,2.87,8.13q2.87,3.36,12.76,8.48c1.44.8,3.55,1.85,6.3,3.16q11.5,5.67,14.65,8.9a26.32,26.32,0,0,1,5.71,8.76,29.1,29.1,0,0,1,1.86,10.65q0,14.58-9.81,23.44t-26.21,8.87a58.45,58.45,0,0,1-14.93-1.68A29.73,29.73,0,0,1,448.19,366.34Z"/><path class="cls-1" d="M528.86,371.25q.92-7.58,1.3-17.35t.38-31.57v-7.22q0-16.26-.38-25.44t-1.3-16.47q6.74.27,13.88.42t14.93.14q7.85,0,14.33-.14t12.23-.42c-.23,1.59-.38,2.82-.45,3.71s-.11,1.71-.11,2.46,0,1.53.11,2.34.22,2.05.45,3.69q-10.72-.7-18.57-1.09T552,283.85c-.19,1.73-.31,3.57-.38,5.54s-.11,4.86-.11,8.69V305l.07,9.74q4.56-.13,15.53-.53t16.57-.59c-.23,1.45-.39,2.6-.46,3.47s-.1,1.71-.1,2.56a49.23,49.23,0,0,0,.49,5.74l.07.42q-13.18-.76-20.08-1.05t-12.09-.28v17.24q0,9.25.14,13c.09,2.48.24,4.56.42,6.24q6.59-.21,14.62-.74t17.55-1.36c-.14.93-.24,1.85-.31,2.76s-.11,1.86-.11,2.84.07,2.28.21,3.89.21,2.61.21,3q-14.37-.42-22.08-.56c-5.13-.09-9.3-.14-12.47-.14q-6.45,0-11.46.17T528.86,371.25Z"/><path class="cls-1" d="M602.66,371.25q.71-10.31,1.12-22.22t.42-25.86q0-13.17-.42-25.72t-1.19-24.18c1.17.14,2.39.25,3.65.35s2.64.14,4.13.14,2.8-.05,4.07-.14,2.47-.24,3.64-.42q14.65,16.4,29.61,32.87t30.25,33V322.19q0-4.69-.15-18.22t-.41-30.7c.88.14,1.82.25,2.8.35s2,.14,3.09.14,2.32-.05,3.32-.14,1.95-.21,2.84-.35q-.63,6.09-.88,18.82t-.24,41V341q0,11.5.24,18.23t.88,12.05c-1.12-.23-2.19-.41-3.19-.53a27.31,27.31,0,0,0-3-.17,28.67,28.67,0,0,0-3,.17c-1.06.12-2.17.3-3.33.53q-13.4-15.28-28.67-32.06T614.37,302.5v41.9c0,1.74,0,5.05.14,10s.23,10.53.42,16.89c-1.22-.23-2.31-.41-3.3-.53a25.8,25.8,0,0,0-2.87-.17,26.28,26.28,0,0,0-2.84.17C604.92,370.84,603.83,371,602.66,371.25Z"/><path class="cls-1" d="M732.53,330.39Q725.74,318,718,304.18t-17.53-31q3,.27,6.31.42t7.08.14q3.65,0,6.94-.14c2.2-.1,4.27-.24,6.24-.42q5.1,11.35,10.68,22.36t11.74,21.72q6.16-10.65,11.43-21.65t9.67-22.43c1.17.18,2.38.32,3.64.42s2.62.14,4.07.14,2.73-.05,4-.14,2.47-.24,3.64-.42q-8.55,13.11-16.37,26.84t-14.89,28.11c-.19,2.57-.32,5.12-.39,7.67s-.1,5.13-.1,7.75c0,4.16.1,8.54.31,13.17s.48,9.46.81,14.51q-3.3-.35-6.24-.53c-2-.11-3.83-.17-5.61-.17s-3.72.06-5.71.17-4.09.3-6.34.53q.71-7.29,1.05-14.51t.35-14.37c0-1.49,0-3.09,0-4.79S732.67,333.47,732.53,330.39Z"/><path class="cls-1" d="M205.35,457.14a16.45,16.45,0,0,1-5.9,2.64,33.33,33.33,0,0,1-8.15.89q-10.47,0-16.2-5.83t-5.74-16.42q0-10.19,6.33-16.25t17-6.06a33,33,0,0,1,7.12.75,27,27,0,0,1,6.38,2.26,27.35,27.35,0,0,0-.75,3.11,17.42,17.42,0,0,0-.26,2.93,14.29,14.29,0,0,0-5.31-5.12,15.46,15.46,0,0,0-7.37-1.63q-7.91,0-12.28,5.27t-4.38,14.8q0,9.21,4.34,14.5t11.87,5.3a19.35,19.35,0,0,0,7-1.35,24.81,24.81,0,0,0,6.69-3.93Z"/><path class="cls-1" d="M251.32,459.84c.18-2.94.32-6.27.42-10s.13-8.09.13-13.17q0-7.89-.13-12.24c-.1-2.91-.25-5.42-.45-7.55q.79.12,1.53.18c.49,0,1,.06,1.57.06s1,0,1.53-.06,1-.1,1.41-.18a44.26,44.26,0,0,0-.33,4.63c-.07,2-.1,5.74-.1,11.33v2.45l5,.05h16l5-.05v-2.45c0-2.95,0-5.73-.12-8.37s-.21-5.16-.38-7.59a13.78,13.78,0,0,0,1.37.18c.48,0,1,.06,1.58.06s1.11,0,1.61-.06,1-.1,1.49-.18c-.18,2.56-.32,5.34-.4,8.35s-.12,6.82-.12,11.44c0,4,0,8,.12,11.8s.22,7.62.4,11.34c-.49-.08-1-.14-1.52-.18s-1.07-.06-1.64-.06-1,0-1.54.06a12.3,12.3,0,0,0-1.35.18c.17-2.56.29-5.44.38-8.64s.12-6.58.12-10.14v-2.95c-2.17-.08-4.33-.13-6.5-.17s-4.3,0-6.45,0-4.31,0-6.48,0-4.34.08-6.51.14v3q0,10.1.1,13.53t.33,5.25q-.76-.12-1.53-.18c-.51,0-1.05-.06-1.63-.06s-1,0-1.52.06A12.24,12.24,0,0,0,251.32,459.84Z"/><path class="cls-1" d="M331.32,459.84q5.9-12.88,10.62-23.54t8.81-20.19h1.19q4.4,11,8.95,21.94t9.25,21.76c-.55-.08-1.08-.15-1.58-.2s-1-.07-1.49-.07-1,0-1.52.07-1.08.13-1.67.23c-.74-2.29-1.55-4.63-2.45-7s-1.87-4.8-2.89-7.26l-1.07-2.52c-.92,0-1.91-.07-3-.09s-2.65,0-4.78,0-3.78,0-4.84,0-2.05.05-2.95.09q-1.5,3.48-3.06,7.48t-3.42,9.31a7.75,7.75,0,0,0-1-.23,7.37,7.37,0,0,0-1-.07,6.75,6.75,0,0,0-1,.07A8.69,8.69,0,0,0,331.32,459.84ZM343,440.29l1.93,0c1.07,0,2,0,2.83,0l3.77,0,4.67,0-1.08-2.76c-.16-.45-.6-1.52-1.3-3.21s-2.07-4.89-4.1-9.61Z"/><path class="cls-1" d="M413.87,459.84q.15-5.52.26-10.83t.1-10.59q0-5.87-.09-11.11c-.06-3.5-.16-7-.3-10.4q.71.12,1.41.18t1.56.06c.53,0,1,0,1.52-.06a13.78,13.78,0,0,0,1.37-.18c-.17,4.09-.29,8-.39,11.78s-.13,7.27-.13,10.53,0,6.5.07,9.36.14,5.63.26,8.32l1.52,0,2.75,0c2.74,0,5.18-.08,7.3-.23a44.44,44.44,0,0,0,5.53-.72c0,.18,0,.48,0,.9s0,.75,0,1,0,.49,0,.92a8.34,8.34,0,0,1,0,1c-3.7-.06-6.76-.11-9.17-.13s-4.2,0-5.37,0c-1.5,0-2.92,0-4.28,0S415.09,459.78,413.87,459.84Z"/><path class="cls-1" d="M482.36,459.84c.18-2.64.32-5.72.39-9.25s.13-7.76.13-12.69q0-6.81-.13-11.91c-.07-3.39-.21-6.42-.39-9.08.88,0,1.83.07,2.87.09s2.65,0,4.86,0q4.31,0,7.63,0l6.76-.09c0,.18,0,.48,0,.89s0,.72,0,.95,0,.48,0,.89,0,.71,0,.92c-2.37-.21-4.81-.36-7.3-.46s-5-.15-7.58-.15h-1.5c0,2.43,0,4.76-.05,7s0,4.31,0,6.29v2.52h1.1c1.9,0,4,0,6.31-.14s4.75-.21,7.35-.35c0,.45-.08.82-.1,1.11s0,.56,0,.82,0,.47,0,.74.06.6.1,1a29.76,29.76,0,0,0-3.76-.38c-1.51-.07-4.21-.11-8.12-.11H488v3q0,5.37,0,8.73t.05,6.61h1.56q2.7,0,6.6-.18c2.6-.12,5.42-.3,8.47-.52,0,.2,0,.52,0,.93s0,.74,0,1,0,.52,0,.93,0,.74,0,.94c-1.19,0-2.51-.07-4-.09s-3.72,0-6.77,0-5.48,0-7.09,0S483.77,459.8,482.36,459.84ZM488,412.7l8.86-9.17a9.9,9.9,0,0,1,1.71-1.45,2.48,2.48,0,0,1,1.24-.36,2.23,2.23,0,0,1,1.64.61,2.13,2.13,0,0,1,.63,1.6,2.08,2.08,0,0,1-.47,1.26,5.63,5.63,0,0,1-1.43,1.22l-10.13,6.29Z"/><path class="cls-1" d="M548.24,457.33a34.26,34.26,0,0,0,.9-3.33,25.94,25.94,0,0,0,.48-3.33,11.89,11.89,0,0,0,4.12,5.5,10.36,10.36,0,0,0,6.25,2,8.72,8.72,0,0,0,6.54-2.51,9.24,9.24,0,0,0,2.45-6.72,7.38,7.38,0,0,0-1.41-4.71,11.72,11.72,0,0,0-4.94-3.21l-5.1-2.15a15.56,15.56,0,0,1-6.35-4.33,9.68,9.68,0,0,1-2-6.22,11.33,11.33,0,0,1,3.68-8.74,13.57,13.57,0,0,1,9.57-3.39,20.45,20.45,0,0,1,4.88.57,22.67,22.67,0,0,1,4.67,1.73c-.31.68-.61,1.41-.91,2.2s-.57,1.67-.84,2.65a11.55,11.55,0,0,0-3.84-3.63,9.79,9.79,0,0,0-4.85-1.22,7.3,7.3,0,0,0-5.51,2.11,7.82,7.82,0,0,0-2,5.69,6.69,6.69,0,0,0,1.46,4.4,13,13,0,0,0,4.9,3.27l5.09,2.21a15.3,15.3,0,0,1,6.4,4.45,10.46,10.46,0,0,1,1.92,6.47,12.68,12.68,0,0,1-4.12,9.86q-4.11,3.74-10.86,3.74a18.85,18.85,0,0,1-5.77-.86A15.51,15.51,0,0,1,548.24,457.33Z"/><path class="cls-2" d="M474.58,98.37c-45.35-30.74-53-49.19-84-75.53C352-9.95,332.08-3.22,309.55,16.69c-37.16,33.37-257.5,226-247.84,230.4,80.46-56.8,172-140.82,240.23-196.44,13.17-10.83,27.8-28.4,44.19-19.62,12.58,6.44,18.14,19.62,6.14,35.72-11.12,14.64,7.61,34.25,14.05,52.11,7.9,21.66-37.75,61.48-103.3,101C295.5,215.47,333,195,378.9,166c15.8-10,24-3.51,25.75,11.13,2.34,17.27,10.53,12,28.67-.59,39.51-29,81.35-80.5,91-70,46.82,36.31-10.24,29.28,33.94,55.63,45.65,27.22,25.17,36-5,67,29-7,36.28-15.22,53.84-26.93,10.24-7,21.94-7,33.06-1.47,20.78,10.83,69.94,38.94,79.3,38.06C660.68,187.66,600.11,133.5,548.91,85.49c-29-25.18-36.58-7.62-74.33,12.88Z"/></svg>